PathFileType	4	(X/Y/Z)	C:/Users/beibeiliu/ov580/test_trc/User3\sequence.26_training_dense_right.trc
DataRate	CameraRate	NumFrames	NumMarkers	Units	OrigDataRate	OrigDataStartFrame	OrigNumFrames
120	120	20	19	mm	120	52	102
Frame#	Time	ThumbCMC			ThumbMCP			ThumbIP			ThumbTip			IndexMCP			IndexPIP			IndexTip			MiddleMCP			MiddlePIP			MiddleTip			RingMCP			RingPIP			RingTip			PinkyMCP			PinkyPIP			PinkyTip			BackHand1			BackHand2			BackHand3	
		X0	Y0	Z0	X1	Y1	Z1	X2	Y2	Z2	X3	Y3	Z3	X4	Y4	Z4	X5	Y5	Z5	X6	Y6	Z6	X7	Y7	Z7	X8	Y8	Z8	X9	Y9	Z9	X10	Y10	Z10	X11	Y11	Z11	X12	Y12	Z12	X13	Y13	Z13	X14	Y14	Z14	X15	Y15	Z15	X16	Y16	Z16	X17	Y17	Z17	X18	Y18	Z18	
51	0.425	93.7251	-9.42687	13.3647	81.435	-9.92472	-19.7309	72.3734	-12.1972	-44.516	70.4249	-16.8176	-70.0864	126.835	9.46377	-55.199	116.579	6.17476	-83.7264	95.5008	-6.33741	-103.136	141.824	-2.91866	-61.5262	129.948	-6.403	-91.582	102.559	-26.731	-111.328	153.14	-23.9897	-58.368	139.194	-26.2236	-88.3074	119.971	-45.7309	-103.002	154.396	-42.8083	-51.0137	147.731	-51.3386	-71.3025	125.44	-60.9434	-89.2729	158.452	-22.8701	-5.53673	158.016	-34.2993	24.4573	135.535	-2.62876	14.505	
52	0.433333	94.781	-8.4164	11.6319	78.5995	-10.0552	-18.7624	72.9692	-12.0694	-46.6118	67.5038	-15.9885	-68.7962	125.84	8.87458	-59.6745	112.868	7.92002	-87.4101	96.3256	-11.2524	-105.408	142.561	-3.31824	-65.6349	127.957	-5.82191	-92.1984	105.427	-29.0924	-110.95	150.078	-20.9228	-61.0741	140.169	-27.0661	-87.0436	118.755	-45.3336	-103.181	153.982	-42.4724	-49.5805	144.98	-48.3596	-73.0509	126.223	-59.0008	-88.1623	159.681	-24.9959	-4.59974	153.657	-32.2264	26.7995	135.582	-5.36793	12.8941	
53	0.441667	94.7209	-9.48373	12.338	77.1563	-9.51654	-17.3156	69.6288	-11.4612	-43.5259	67.711	-15.8617	-71.8717	125.527	9.49394	-55.7685	117.052	6.75849	-84.0265	99.5985	-8.47779	-102.477	140.039	-1.52614	-63.0482	128.003	-8.86908	-95.7125	106.398	-28.4825	-111.195	151.341	-22.5138	-62.1086	141.717	-27.982	-86.697	115.744	-41.8215	-102.812	155.057	-45.0034	-49.1775	146.984	-52.2627	-71.9266	126.958	-57.5419	-87.6304	158.864	-25.0977	-1.95798	154.691	-31.9037	25.5793	134.516	-1.74996	13.4815	
54	0.45	96.5213	-12.164	12.5698	80.3747	-12.5176	-15.2225	70.8993	-11.2372	-45.7945	67.0555	-16.9606	-66.4746	126.084	8.88356	-59.4311	113.459	6.55097	-87.7502	98.1094	-6.9916	-103.102	140.118	-2.50903	-65.1001	126.565	-9.00137	-95.3939	103.666	-24.7548	-110.355	148.417	-20.8378	-61.3866	142.133	-29.1612	-86.4772	119.947	-41.9144	-102.106	153.767	-43.9482	-52.4836	143.066	-50.9442	-73.6319	122.425	-62.2873	-89.6321	156.272	-23.3066	-4.93799	155.114	-33.8567	25.7741	135.011	-1.42061	11.3113	
55	0.458333	97.7569	-12.9394	11.5683	82.3668	-12.3625	-18.5579	70.1944	-12.7486	-43.2394	69.9916	-19.3209	-69.4665	124.589	9.22863	-57.766	115.554	4.45624	-85.8759	99.2444	-7.58121	-102.625	140.751	-4.50366	-64.1918	127.861	-9.23446	-93.026	103.006	-30.083	-111.669	151.198	-24.9319	-58.5305	137.03	-27.006	-87.8537	119.778	-46.2355	-103.285	153.696	-44.7705	-49.1982	144.084	-53.5951	-74.0279	124.157	-58.8277	-88.0418	158.9	-24.8452	-4.87503	154.515	-34.9314	26.0822	133.251	-1.67305	12.0449	
56	0.466667	98.4559	-12.6615	11.2932	81.069	-13.9786	-18.3503	72.7189	-13.9949	-45.2848	69.1803	-20.0795	-68.7642	126.357	6.1352	-58.6493	115.093	5.62126	-83.6882	97.0692	-9.45158	-104.176	141.348	-5.57771	-63.6108	130.481	-11.6273	-91.5018	104.035	-29.9383	-109.677	149.002	-23.6821	-57.8137	141.133	-32.5396	-87.2798	120.859	-48.9405	-100.85	153.687	-43.773	-49.375	146.962	-53.9924	-73.0281	126.602	-65.01	-87.095	159.055	-27.7455	-2.80325	156.381	-33.8753	25.6163	136.236	-5.13416	11.3293	
57	0.475	97.6145	-13.4837	11.951	80.9231	-13.7341	-20.3772	70.077	-14.7207	-48.9393	69.8195	-22.4027	-66.4112	124.233	7.58966	-57.3657	115.209	2.44901	-86.7118	97.0749	-14.9775	-103.823	141.841	-8.02848	-65.0991	126.865	-13.8883	-94.9363	104.292	-35.7645	-107.503	151.732	-26.6702	-58.7795	141.289	-33.1106	-86.3227	116.389	-49.3412	-98.9443	159.452	-45.5969	-51.7026	149.784	-49.4489	-72.314	129.879	-62.7157	-90.9569	158.108	-23.3111	-2.87164	158.183	-32.3275	22.367	136.806	-5.05481	10.8115	
58	0.483333	99.7474	-13.7656	8.81307	80.8681	-16.4127	-17.0286	68.7478	-15.9951	-43.7871	69.7683	-23.7668	-68.3372	123.938	4.9425	-59.1387	110.039	0.782533	-89.2415	93.9051	-18.7557	-101.926	140.785	-7.20176	-65.1217	126.497	-20.4565	-96.1216	98.1594	-45.1185	-101.073	150.163	-22.0068	-60.6074	141.121	-38.0027	-87.2269	118.761	-55.68	-93.171	164.361	-42.3003	-49.8264	158.716	-48.1636	-74.0247	144.158	-60.4414	-93.2794	160.766	-23.7489	-3.91172	160.262	-29.838	26.0509	136.353	-3.25393	11.2906	
59	0.491667	102.136	-14.6543	9.15148	80.3806	-14.2561	-16.2543	74.5212	-16.8793	-45.2677	68.1922	-22.0562	-65.3556	119.615	5.05073	-62.0499	110.34	-6.91315	-89.5477	95.2585	-33.9891	-96.4654	138.545	-9.00855	-71.4413	123.398	-26.9474	-94.864	103.008	-55.6342	-86.4492	154.151	-23.5293	-64.3119	142.255	-42.1768	-86.9145	121.912	-65.4695	-79.6679	170.262	-37.4435	-47.8138	169.588	-43.2454	-73.0306	156.483	-53.3674	-92.3164	161.902	-16.2958	-10.6901	163.489	-22.3933	23.3477	137.664	-0.302554	9.21854	
60	0.5	101.278	-11.7519	10.99	87.3302	-12.5658	-15.7849	72.2788	-11.046	-41.5348	64.1589	-14.8098	-64.7291	121.298	0.280648	-68.32	105.408	-20.0608	-90.2782	91.7296	-47.4637	-80.8312	137.023	-9.97607	-70.6674	120.235	-34.1754	-89.0115	110.479	-62.9905	-58.1507	154.505	-25.1367	-69.3531	141.803	-48.1121	-80.5753	125.72	-66.6793	-57.1923	175.249	-31.2102	-49.2754	171.05	-32.9306	-76.3837	169.128	-47.1877	-95.449	166.017	-9.43411	-11.8893	167.058	-13.5913	19.1575	137.604	5.28434	2.56935	
61	0.508333	104.282	-6.45469	5.63519	83.8266	-5.82735	-14.4086	70.1968	-2.89516	-41.9791	67.2338	-6.54176	-63.3264	119.201	2.95633	-67.0343	108.856	-24.5883	-87.9691	95.1772	-45.1397	-69.9792	139.297	-12.0903	-71.463	119.033	-40.1254	-81.6823	113.707	-51.0037	-44.2778	151.228	-20.9568	-68.6734	140.101	-46.7861	-76.8462	130.599	-57.7424	-44.9458	173.974	-19.6559	-54.9666	176.369	-25.0825	-75.9462	167.799	-36.6855	-102.868	166.27	-3.07996	-16.085	168.112	-6.11064	15.1736	134.327	11.0791	1.15037	
62	0.516667	103.273	0.639649	3.56002	86.0681	-0.143943	-19.6667	71.4508	3.62285	-48.5646	66.2331	-0.359283	-69.0242	121.496	9.34214	-70.4791	111.351	-13.2694	-91.6946	95.8158	-37.7419	-71.6828	135.94	-7.35778	-79.6794	118.883	-34.3233	-80.7174	120.197	-37.5972	-39.2043	153.334	-15.2754	-70.5987	135.573	-42.8845	-73.7773	131.787	-43.3696	-38.3194	176.325	-12.489	-57.4521	172.499	-15.0594	-83.5333	163.526	-26.6603	-105.692	164.868	6.16866	-17.0471	169.703	1.90868	13.5122	135.426	16.5764	-4.1584	
63	0.525	101.452	6.09025	-2.0316	85.6214	1.61914	-26.7949	72.6534	0.0328914	-53.9434	75.2644	-8.81003	-80.4643	121.369	22.7121	-73.4129	107.045	6.55642	-101.729	100.159	-24.0642	-90.3446	134.324	3.70621	-80.7995	119.76	-23.125	-86.7504	121.768	-27.1407	-43.0112	151.226	-5.34	-74.1418	138.753	-32.882	-78.1457	133.253	-35.4328	-45.8661	172.557	-2.12378	-62.0391	167.461	-3.10184	-84.2434	161.935	-14.4993	-108.812	163.947	17.7167	-24.2961	166.767	11.3822	9.54528	131.277	25.7498	-7.26474	
64	0.533333	101.61	5.83938	0.126225	84.3013	-2.793	-33.8574	79.0626	-12.1999	-59.2223	94.2879	-20.9854	-83.1942	114.467	37.0376	-70.2821	107.69	29.7829	-106.106	100.834	1.62471	-115.677	126.633	14.5818	-83.6696	118.147	-15.2237	-91.2413	115.075	-21.5801	-51.9422	146.127	3.2811	-77.8457	135.263	-28.1694	-81.5861	128.639	-31.0495	-52.4377	166.513	7.34915	-64.5689	164.463	6.7278	-89.7395	161.011	-2.44256	-112.461	161.463	22.8009	-27.4946	165.532	18.5943	5.4334	130.773	30.3644	-7.17388	
65	0.541667	99.9067	6.01633	-6.12054	90.7315	-8.15384	-37.1867	89.5959	-18.368	-65.7318	108.5	-28.0809	-82.4213	117.018	40.6698	-70.8164	117.726	42.3659	-104.663	111.405	32.1114	-127.687	131.353	16.3704	-89.4199	118.607	-10.3396	-96.4557	113.874	-20.3801	-59.1398	143.233	5.64146	-81.6794	132.176	-22.0204	-86.5926	125.795	-28.4298	-54.0249	166.215	10.604	-67.0227	166.606	10.4318	-92.5901	161.727	6.80506	-112.413	160.882	23.8196	-25.8279	162.142	18.6092	5.18405	132.314	34.295	-11.6116	
66	0.55	101.602	1.0912	-13.1315	95.6469	-17.4643	-42.8993	101.919	-29.8692	-74.3196	125.43	-37.7998	-82.6094	124.961	34.7693	-79.6892	122.865	41.9518	-104.591	123.94	40.1911	-135.203	137.483	10.717	-89.6077	125.279	-18.891	-99.8985	121.762	-27.0938	-59.3713	151.35	-3.73338	-86.2562	139.598	-32.9845	-85.821	131.413	-36.0454	-56.2668	172.807	4.86098	-67.2526	173.762	5.97133	-87.3684	175.689	3.46429	-114.801	166.302	20.0114	-31.9375	165.219	14.6466	-0.218038	133.241	28.2573	-13.9193	
67	0.558333	104.833	-10.8273	-18.5848	103.584	-34.5623	-47.222	117.225	-49.7457	-72.3373	138.303	-59.8691	-79.0942	133.24	14.2729	-87.2959	132.965	17.4472	-114.199	140.023	17.0538	-138.919	144.233	-13.0059	-95.6786	137.417	-42.1599	-98.478	129.461	-45.218	-60.1087	162.944	-21.6899	-81.8658	150.752	-51.0669	-83.7787	140.612	-51.2282	-51.7251	183.15	-12.8914	-66.8011	182.342	-11.9867	-92.2661	188.023	-15.7946	-111.947	168.411	8.16242	-32.0202	169.46	8.10078	-0.0888798	134.266	19.0698	-23.7866	
68	0.566667	107.321	-23.6389	-17.3073	105.665	-51.4802	-38.5201	115.617	-76.4516	-61.3899	142.138	-84.9067	-65.3057	135.993	-15.1086	-87.5912	140.083	-18.3512	-112.958	141.758	-21.8394	-138.438	152.401	-44.0074	-90.8415	141.558	-71.3982	-85.7632	131.403	-62.6303	-48.2533	166.754	-50.2641	-75.5898	152.233	-76.3444	-69.1529	139.582	-65.5833	-37.3803	184.111	-35.5776	-63.838	185.284	-41.3507	-82.1316	189.07	-51.1639	-108.203	168.375	-6.4468	-33.7956	169.487	-0.867762	-6.07451	140.308	3.79684	-28.0921	
69	0.575	108.083	-25.1054	-12.2767	96.6943	-54.5334	-24.4004	103.842	-84.4702	-41.9887	124.068	-97.4082	-41.4958	125.541	-37.5691	-85.5177	126.293	-47.8952	-106.33	128.09	-57.6296	-127.498	137.414	-65.1889	-76.7341	120.885	-90.2677	-64.9622	122.05	-69.638	-30.4964	152.789	-70.9756	-61.1519	135.134	-92.7803	-48.894	132.305	-73.3217	-19.0593	170.915	-58.807	-56.2862	175.533	-72.5433	-71.0707	171.903	-89.3064	-88.5464	168.129	-23.6956	-33.7851	165.62	-7.03794	-4.23562	135.546	-3.6615	-24.0684	
70	0.583333	106.811	-6.77198	-2.15469	83.5753	-34.0294	-11.9947	73.1413	-63.7317	-22.8356	91.3965	-86.0722	-22.6898	112.768	-40.2611	-74.9362	104.547	-50.4813	-94.3885	98.571	-64.6656	-116.603	113.085	-66.7812	-60.4925	85.9475	-78.409	-46.6974	98.2901	-56.7327	-15.5481	121.494	-72.7974	-46.2822	99.5007	-85.165	-28.7166	104.797	-59.6635	-5.54776	145.508	-70.3703	-44.7273	137.249	-87.9807	-59.6713	125.743	-99.9754	-70.1954	158.354	-35.9727	-27.5527	166.64	-18.5685	-4.12978	141.465	-3.11146	-24.0954	
